<?xml version="1.0" standalone="no"?>
<!DOCTYPE svg PUBLIC "-//W3C//DTD SVG 20010904//EN"
 "http://www.w3.org/TR/2001/REC-SVG-20010904/DTD/svg10.dtd">
<svg version="1.0" xmlns="http://www.w3.org/2000/svg"
 width="156.000000pt" height="156.000000pt" viewBox="0 0 156.000000 156.000000"
 preserveAspectRatio="xMidYMid meet">
<metadata>
Created by potrace 1.14, written by Peter Selinger 2001-2017
</metadata>
<g transform="translate(0.000000,156.000000) scale(0.100000,-0.100000)"
fill="#000000" stroke="none">
<path d="M253 1264 l2 -297 65 -56 c36 -30 100 -90 143 -133 75 -77 97 -92 57
-40 -18 23 -21 39 -19 132 1 72 6 112 15 125 8 10 14 15 14 9 0 -5 9 4 19 19
10 16 21 28 25 28 19 -3 26 0 26 9 0 14 46 60 60 60 6 0 8 11 4 28 -7 27 -7
27 15 8 11 -11 21 -15 21 -9 0 5 16 17 35 26 19 9 35 22 35 27 0 6 5 8 12 4 6
-4 8 -3 5 4 -9 14 2 42 18 42 6 0 19 19 28 42 9 23 20 38 24 35 4 -4 1 -13 -5
-19 -7 -7 -12 -17 -12 -22 0 -6 7 0 16 12 9 13 14 32 11 44 -3 11 -3 17 0 14
6 -6 63 79 63 95 0 19 51 -17 129 -91 46 -43 129 -110 137 -110 5 0 -1 7 -13
15 -24 17 -21 45 6 45 13 0 13 2 2 9 -11 7 -11 9 0 14 11 4 11 6 1 6 -20 1
-39 -22 -34 -39 5 -13 3 -13 -11 -1 -21 17 -22 31 -2 31 9 0 12 6 8 16 -3 9
-12 13 -22 9 -13 -5 -13 -4 -4 6 10 10 18 10 38 1 21 -10 25 -10 18 0 -11 19
-12 37 -3 43 5 3 7 -4 5 -16 -3 -15 0 -19 10 -15 8 3 14 2 14 -2 -3 -21 2 -42
11 -42 5 0 7 7 3 16 -4 12 -2 15 8 12 8 -3 15 -10 15 -16 3 -25 5 -27 14 -12
8 12 10 11 10 -7 0 -27 -16 -39 -24 -18 -3 8 -10 15 -16 15 -14 0 20 -35 34
-35 6 -1 15 4 19 10 5 6 7 3 4 -7 -3 -9 3 -26 14 -39 22 -25 24 -35 7 -45 -7
-4 -8 -3 -4 4 4 7 1 12 -7 12 -8 0 -18 11 -21 25 -4 14 -11 23 -16 20 -6 -4
-8 -11 -5 -16 6 -8 -17 -14 -40 -9 -5 1 -1 -8 10 -20 11 -12 27 -19 37 -17 10
3 18 1 18 -4 0 -5 -5 -9 -11 -9 -5 0 -7 -5 -4 -11 4 -6 9 -9 11 -6 2 2 32 -24
67 -57 35 -34 96 -91 137 -128 64 -57 73 -69 64 -85 -17 -29 -206 -173 -218
-166 -6 3 -8 3 -4 -2 4 -4 -16 -26 -45 -48 -29 -22 -118 -100 -199 -174 -103
-93 -152 -131 -163 -127 -9 4 -28 18 -43 33 -59 55 -282 252 -282 247 0 -2 -3
-13 -7 -23 -6 -16 -5 -16 10 -4 15 11 17 11 17 -2 0 -8 7 -17 15 -21 9 -3 12
-12 9 -23 -5 -14 -4 -15 4 -4 8 11 10 8 9 -12 -2 -19 -5 -23 -15 -15 -9 8 -11
7 -6 -6 3 -9 14 -16 23 -16 9 0 23 -6 30 -13 11 -10 11 -8 2 13 -12 24 -11 24
4 5 9 -11 18 -18 21 -17 3 2 9 0 12 -4 4 -4 1 -4 -5 0 -7 4 -13 3 -13 -1 0
-12 41 -46 47 -39 3 3 14 -5 25 -17 11 -12 16 -16 12 -8 -5 9 2 8 19 -5 15
-10 29 -27 32 -36 4 -11 12 -15 22 -11 12 5 15 2 10 -10 -3 -9 -3 -16 1 -16
21 3 24 -3 6 -16 -18 -13 -18 -14 5 -8 19 5 22 3 15 -10 -9 -15 -308 -295
-349 -327 -19 -14 -19 -14 -6 3 19 24 6 34 -15 12 -15 -14 -15 -18 -3 -26 8
-5 189 -9 403 -9 l389 0 -24 26 c-13 14 -45 42 -72 62 -28 21 -45 42 -42 50 2
7 1 10 -4 7 -6 -3 -21 6 -35 20 -30 30 -35 47 -7 21 12 -11 21 -14 26 -7 3 6
2 11 -3 11 -5 0 -9 7 -9 15 0 8 4 15 9 15 4 0 8 -5 8 -12 0 -6 3 -9 6 -6 3 4
0 16 -6 28 -11 20 -10 21 10 10 15 -8 19 -17 15 -31 -4 -11 -2 -19 5 -19 6 0
8 5 5 10 -10 16 6 12 29 -8 11 -9 4 2 -17 26 -33 37 -50 71 -29 59 4 -3 17 -1
29 4 19 7 20 12 13 43 -5 23 -4 36 2 36 6 0 8 7 4 15 -3 9 0 15 10 15 8 0 25
11 38 25 13 13 26 22 29 18 4 -3 7 3 7 14 0 12 7 23 15 27 8 3 15 10 15 17 0
6 11 20 25 31 14 11 23 24 19 29 -6 10 20 41 28 33 3 -2 13 10 21 28 9 18 17
29 17 24 0 -5 9 2 21 15 12 13 26 23 31 21 6 -2 8 3 5 11 -3 8 3 21 14 30 10
9 19 13 19 7 0 -5 -4 -12 -10 -15 -15 -9 -12 -32 7 -50 14 -14 14 -18 2 -26
-8 -5 -9 -9 -3 -9 20 0 2 -186 -20 -207 -3 -4 -6 -1 -6 7 0 9 -3 10 -13 1 -8
-6 -18 -7 -22 -3 -5 4 -4 0 0 -8 12 -19 18 -79 7 -62 -6 8 -9 0 -10 -23 -1
-19 3 -35 9 -35 6 0 8 10 4 23 -5 19 -4 20 5 4 6 -9 8 -22 5 -27 -4 -6 -8 -22
-11 -36 -3 -19 -1 -24 8 -18 10 6 9 3 -1 -9 -12 -15 -11 -17 8 -17 11 0 21 -5
21 -11 0 -5 -4 -7 -10 -4 -6 3 -7 -1 -4 -9 3 -9 1 -16 -5 -16 -7 0 -5 -9 5
-25 9 -14 22 -25 29 -25 9 0 13 -12 13 -31 -1 -20 -4 -26 -9 -17 -5 7 -9 9 -9
4 0 -5 -9 -1 -20 9 -11 10 -20 13 -20 7 0 -7 9 -17 20 -24 11 -7 20 -16 20
-21 0 -4 -4 -5 -10 -2 -13 8 -13 -1 0 -26 6 -10 17 -19 25 -19 13 0 15 89 15
676 0 446 -4 682 -10 695 -7 13 -7 19 0 19 18 0 11 33 -12 58 -22 24 -22 24
-2 18 15 -5 21 -2 21 11 0 28 -17 45 -32 33 -9 -8 -15 -8 -20 0 -3 5 1 10 9
10 9 0 16 4 16 10 0 5 7 7 15 4 9 -4 15 0 15 10 0 9 -8 16 -20 16 -12 0 -20
-7 -20 -17 0 -15 -2 -16 -10 -3 -7 11 -35 15 -122 17 l-113 3 27 -23 27 -22
-29 -1 c-16 -1 -29 2 -28 5 4 34 -4 42 -34 39 -17 -2 -34 -10 -36 -18 -4 -12
-2 -13 10 -3 12 10 19 9 36 -8 12 -11 22 -26 22 -34 0 -11 -5 -10 -20 5 -11
11 -27 20 -35 20 -9 0 -20 10 -25 23 -5 12 -9 16 -9 9 -1 -7 3 -21 8 -30 7
-14 4 -17 -17 -19 -15 0 -20 2 -13 7 10 6 10 12 0 29 -12 18 -23 21 -85 21
-58 0 -76 -4 -99 -22 l-28 -22 5 22 c4 12 2 22 -2 22 -13 0 -17 -10 -24 -53
-6 -40 -6 -39 -170 -180 -50 -42 -128 -109 -173 -147 -45 -39 -84 -70 -88 -70
-6 0 -5 97 2 123 2 9 8 15 12 12 5 -2 6 7 3 22 -3 14 -1 23 4 20 11 -6 11 33
1 50 -4 7 -3 14 3 18 6 4 7 12 3 18 -11 18 -12 117 0 110 5 -3 4 4 -2 15 -6
10 -8 29 -6 41 4 21 1 21 -130 21 l-134 0 2 -296z m1237 266 c0 -5 -4 -10 -10
-10 -5 0 -10 5 -10 10 0 6 5 10 10 10 6 0 10 -4 10 -10z m-240 -42 c11 -12 23
-19 26 -15 4 3 16 1 28 -5 17 -9 19 -8 9 3 -7 7 -13 18 -13 25 0 11 65 -44 67
-56 0 -3 1 -9 2 -14 0 -5 9 -3 19 5 15 12 15 11 -1 -7 -15 -16 -19 -17 -28 -4
-9 12 -10 11 -6 -6 5 -24 -17 -59 -32 -49 -6 3 -11 1 -11 -4 0 -6 7 -11 15
-11 8 0 15 -4 15 -9 0 -5 -9 -7 -20 -4 -11 3 -20 12 -20 19 0 8 -5 14 -11 14
-5 0 -7 -5 -4 -11 4 -6 -2 -5 -14 2 -14 10 -17 15 -8 21 12 8 10 9 -15 12 -7
0 -18 12 -24 25 -7 13 -18 28 -26 32 -11 7 -10 11 2 19 11 7 19 5 28 -7 11
-16 12 -16 12 0 0 9 -4 17 -9 17 -5 0 -11 7 -15 15 -8 22 10 18 34 -7z m140
18 c0 -3 -4 -8 -10 -11 -5 -3 -10 -1 -10 4 0 6 5 11 10 11 6 0 10 -2 10 -4z
m125 -24 c-3 -3 -11 0 -18 7 -9 10 -8 11 6 5 10 -3 15 -9 12 -12z m-31 -28 c3
-8 2 -12 -4 -9 -6 3 -10 10 -10 16 0 14 7 11 14 -7z m-34 -24 c0 -5 -6 -12
-12 -16 -7 -4 -10 -4 -6 1 4 4 3 14 -4 22 -8 11 -7 12 6 7 9 -3 16 -10 16 -14z
m80 3 c0 -10 -29 -33 -42 -33 -8 1 -7 4 4 11 10 5 15 16 11 24 -4 11 -1 13 11
9 9 -3 16 -8 16 -11z m-66 -47 c-3 -9 -10 -16 -15 -16 -5 0 -4 9 3 20 14 22
21 20 12 -4z m-54 -1 c4 3 6 -4 3 -15 -3 -11 -13 -20 -22 -20 -12 0 -13 2 -3
9 11 6 10 10 -4 15 -16 6 -16 8 -4 16 9 6 16 6 18 0 2 -6 7 -8 12 -5z m111 -8
c-10 -9 -11 -8 -5 6 3 10 9 15 12 12 3 -3 0 -11 -7 -18z m-151 -18 c0 -6 -4
-7 -10 -4 -5 3 -10 11 -10 16 0 6 5 7 10 4 6 -3 10 -11 10 -16z m130 -9 c0 -5
-5 -10 -11 -10 -5 0 -7 5 -4 10 3 6 8 10 11 10 2 0 4 -4 4 -10z m-102 -46 c2
-1 -5 -5 -15 -8 -9 -4 -14 -4 -10 0 4 4 1 14 -6 23 -11 14 -10 15 8 1 11 -8
21 -15 23 -16z m35 1 c-3 -9 -8 -14 -10 -11 -3 3 -2 9 2 15 9 16 15 13 8 -4z
m-168 -85 c-3 -5 -12 -7 -20 -3 -21 7 -19 13 6 13 11 0 18 -4 14 -10z m262
-55 c0 -8 -4 -15 -9 -15 -10 0 -11 14 -1 23 9 10 10 9 10 -8z m20 -486 c2 -16
-1 -19 -9 -11 -5 5 -7 15 -4 21 10 15 12 14 13 -10z m-34 -404 c-3 -9 -8 -14
-10 -11 -3 3 -2 9 2 15 9 16 15 13 8 -4z"/>
<path d="M1260 1450 c0 -5 10 -10 23 -10 18 0 19 2 7 10 -19 13 -30 13 -30 0z"/>
<path d="M1327 1423 c-5 -26 -4 -26 9 -8 16 22 18 35 5 35 -5 0 -11 -12 -14
-27z"/>
<path d="M1300 1430 c-9 -6 -10 -10 -3 -10 6 0 15 5 18 10 8 12 4 12 -15 0z"/>
<path d="M848 1537 l22 -23 -47 -49 c-39 -40 -42 -44 -13 -22 50 37 90 82 90
101 0 12 -10 16 -37 16 l-36 0 21 -23z"/>
<path d="M1 1295 c-1 -73 8 -95 41 -95 24 0 19 38 -15 110 l-26 55 0 -70z"/>
<path d="M1190 1288 c0 -12 7 -18 23 -17 15 0 17 2 7 6 -8 3 -18 11 -22 17 -5
7 -8 4 -8 -6z"/>
<path d="M557 684 c6 -15 23 -19 23 -5 0 5 -7 11 -14 14 -10 4 -13 1 -9 -9z"/>
<path d="M0 276 l0 -277 225 1 c127 1 227 5 230 11 4 5 1 9 -4 9 -6 0 -11 7
-11 15 0 8 6 12 13 9 7 -2 13 4 14 16 1 11 -3 20 -8 20 -6 0 -7 -5 -3 -11 5
-9 -1 -10 -22 -5 -16 4 -33 14 -37 22 -5 8 -12 12 -16 9 -13 -7 -34 22 -26 35
4 7 1 10 -8 8 -9 -2 -16 1 -17 6 -1 14 33 17 42 3 4 -6 2 -14 -4 -18 -6 -4 -7
-12 -3 -18 5 -9 11 -7 22 6 8 10 12 13 9 7 -3 -6 1 -11 8 -11 8 0 12 6 9 14
-3 7 -9 13 -14 13 -5 0 -9 5 -9 11 0 6 13 1 30 -11 16 -12 30 -26 30 -31 0 -6
-4 -8 -9 -5 -5 3 -11 -1 -14 -9 -5 -11 -1 -12 17 -5 27 10 51 -2 43 -23 -7
-18 16 -30 31 -15 7 7 -12 30 -57 71 -36 34 -111 107 -166 163 -55 55 -144
138 -197 183 l-98 83 0 -276z m221 -73 c1 -10 1 -21 0 -25 0 -5 4 -8 10 -8 5
0 7 -5 3 -11 -4 -8 -9 -7 -15 2 -4 7 -5 17 -3 21 3 4 1 8 -4 8 -5 0 -9 7 -9
15 0 21 17 19 18 -2z m149 -17 c0 -3 -4 -8 -10 -11 -5 -3 -10 -1 -10 4 0 6 5
11 10 11 6 0 10 -2 10 -4z"/>
<path d="M1157 174 c-4 -4 -4 -10 -1 -15 6 -10 34 0 34 12 0 10 -24 12 -33 3z"/>
<path d="M1200 135 c0 -5 5 -17 10 -25 5 -8 10 -10 10 -5 0 6 -5 17 -10 25 -5
8 -10 11 -10 5z"/>
<path d="M1236 101 c-4 -5 4 -15 16 -22 22 -12 22 -11 8 7 -8 10 -15 20 -16
22 -1 2 -5 -1 -8 -7z"/>
<path d="M1525 100 c3 -5 8 -10 11 -10 2 0 4 5 4 10 0 6 -5 10 -11 10 -5 0 -7
-4 -4 -10z"/>
<path d="M470 10 c0 -5 5 -10 10 -10 6 0 10 5 10 10 0 6 -4 10 -10 10 -5 0
-10 -4 -10 -10z"/>
</g>
</svg>
